<svg style="enable-background:new 0 0 500 166;" version="1.1" x="0px" y="0px" viewBox="0 0 500 166" preserveAspectRatio="xMidYMid meet"><g id="white"><path class="st0" d="M50.4,2.02c-4.32.29-5.98,1.3-6.34,4.25-.22,1.94-.36,5.04-.36,11.67v5.98c0,8.5-1.3,14.62-5.47,19.01-3.31,3.46-8.14,4.97-12.89,4.97-4.18,0-8.35-1.01-11.52-3.46-4.32-3.31-6.34-8.71-6.34-17.14V9.29c0-6.48-.58-6.77-6.26-7.27V0h18.65v2.02c-5.69.36-6.26.79-6.26,7.27v16.42c0,11.59,4.61,18.22,13.54,18.22,10.37,0,13.61-8.64,13.61-20.52v-5.47c0-6.62-.22-9.65-.5-11.88-.43-2.81-1.94-3.67-6.98-4.03V0h17.14v2.02Z" /><path class="st0" d="M69.47,46.8v-1.87c4.25-.43,4.75-1.01,4.75-5.98v-12.02c0-4.97-1.73-8.21-6.55-8.21-2.88,0-5.69,1.8-7.85,3.67v16.92c0,4.9.43,5.18,4.68,5.62v1.87h-15.62v-1.87c4.9-.5,5.26-.86,5.26-5.62v-14.91c0-4.61-.43-4.82-4.32-5.54v-1.66c3.46-.65,6.84-1.51,10.01-2.95v5.76c1.44-1.08,3.02-2.16,4.82-3.38,2.02-1.3,3.89-2.16,5.98-2.16,5.69,0,9.29,3.96,9.29,10.94v13.9c0,4.9.36,5.18,4.54,5.62v1.87h-14.98Z" /><path class="st0" d="M87.76,46.8v-1.87c4.54-.43,5.04-.86,5.04-5.76v-14.83c0-4.46-.22-4.75-4.54-5.47v-1.73c3.67-.58,7.06-1.51,10.23-2.81v24.84c0,4.9.5,5.33,5.11,5.76v1.87h-15.84ZM91.58,4.54c0-2.16,1.73-3.74,3.67-3.74s3.6,1.58,3.6,3.74c0,1.94-1.58,3.67-3.67,3.67-1.87,0-3.6-1.73-3.6-3.67Z" /><path class="st0" d="M137.08,17.14c-3.74.5-4.39,1.15-6.34,5.47-2.38,5.4-6.19,14.26-10.15,24.99h-1.94c-3.24-8.64-6.55-16.85-9.94-25.2-1.66-4.18-2.23-4.68-6.12-5.26v-1.8h14.76v1.8c-3.89.5-4.03,1.08-2.88,4.18,1.87,5.04,4.75,12.6,6.84,17.79,2.52-5.98,4.82-12.53,6.41-17.21,1.08-3.46.65-4.25-3.46-4.75v-1.8h12.82v1.8Z" /><path class="st0" d="M161.06,40.68c-4.54,5.69-9.5,6.98-11.74,6.98-8.86,0-14.04-7.2-14.04-15.34,0-4.97,1.8-9.36,4.75-12.6,2.95-3.31,6.84-5.26,10.58-5.26,5.98,0,10.8,5.33,10.8,10.94,0,1.44-.36,2.02-1.66,2.3-1.22.22-10.23.94-18.79,1.22.07,9.79,5.69,13.83,10.73,13.83,2.88,0,5.62-1.15,8.21-3.6l1.15,1.51ZM141.33,25.99c4.03,0,7.99-.07,12.17-.22,1.3,0,1.73-.43,1.73-1.44.07-3.74-2.38-7.2-6.34-7.2-3.31,0-6.48,3.02-7.56,8.86Z" /><path class="st0" d="M175.67,22.11c2.16-3.6,5.26-7.63,8.71-7.63,2.45,0,4.18,1.87,4.18,3.6,0,1.44-.94,2.88-2.3,3.53-.86.36-1.51.29-1.94-.14-1.01-1.08-1.87-1.51-3.02-1.51-1.87,0-4.18,2.16-5.76,6.19v13.18c0,4.75.36,5.18,5.9,5.62v1.87h-16.56v-1.87c4.46-.43,4.97-.86,4.97-5.62v-14.91c0-4.75-.36-5.04-4.46-5.62v-1.58c3.53-.58,6.7-1.44,10.15-2.95v7.85h.14Z" /><path class="st0" d="M208.79,23.83c-1.37-4.25-3.89-7.13-7.42-7.13-2.74,0-4.68,2.16-4.68,4.97,0,3.24,2.88,4.9,6.12,6.26,5.4,2.23,9.07,4.82,9.07,9.79,0,6.55-6.12,9.94-11.88,9.94-3.67,0-6.98-1.37-8.28-2.45-.5-1.01-1.15-5.9-1.15-8.5l1.87-.36c1.3,4.75,4.54,8.93,8.86,8.93,2.66,0,5.11-2.02,5.11-5.04s-2.09-4.9-5.69-6.55c-4.32-2.02-9-4.39-9-9.94,0-5.04,4.32-9.29,10.94-9.29,2.95,0,4.9.65,6.41,1.22.58,1.66,1.37,5.9,1.58,7.7l-1.87.43Z" /><path class="st0" d="M215.99,46.8v-1.87c4.54-.43,5.04-.86,5.04-5.76v-14.83c0-4.46-.22-4.75-4.54-5.47v-1.73c3.67-.58,7.06-1.51,10.22-2.81v24.84c0,4.9.5,5.33,5.11,5.76v1.87h-15.84ZM219.81,4.54c0-2.16,1.73-3.74,3.67-3.74s3.6,1.58,3.6,3.74c0,1.94-1.58,3.67-3.67,3.67-1.87,0-3.6-1.73-3.6-3.67Z" /><path class="st0" d="M248.83,46.73c-1.22.65-2.38.94-3.02.94-4.54,0-7.06-2.88-7.06-8.57v-20.95h-4.97l-.29-.72,1.94-2.09h3.31v-5.26l4.68-4.75,1.01.14v9.86h8.14c.65.72.43,2.3-.43,2.81h-7.71v18.51c0,5.83,2.38,6.91,4.18,6.91s3.46-.72,4.46-1.22l.65,1.87-4.9,2.52Z" /><path class="st0" d="M288.35,17.14c-3.82.58-4.46,1.15-6.41,5.26-1.8,3.82-4.03,9.79-9,21.67-4.82,11.52-6.41,15.63-7.42,19.51-.36,1.37-1.3,1.73-2.3,1.73-2.02,0-4.1-1.73-4.1-3.46,0-1.15.65-1.8,1.87-2.59,2.23-1.44,3.67-3.24,5.33-6.41,1.37-2.52,1.94-4.03,2.23-4.97.36-1.08.36-2.02-.07-3.24-2.88-8.21-6.12-16.92-8.28-22.03-1.51-3.96-2.23-4.9-6.19-5.47v-1.8h14.62v1.8c-3.31.58-3.67,1.3-2.74,3.96l6.55,18.07c2.02-4.9,5.11-13.39,6.62-17.93.86-2.74.36-3.53-3.74-4.1v-1.8h13.03v1.8Z" /><path class="st0" d="M41.9,104.84v-2.02c5.83-.58,6.12-.94,6.05-8.57l-.22-29.38h-.29l-17.57,39.46h-1.44l-16.13-38.45h-.14l-1.08,20.52c-.29,5.9-.29,9.07-.22,11.95.14,3.46,1.87,3.96,6.62,4.46v2.02H.71v-2.02c4.18-.5,5.62-1.3,6.12-4.32.36-2.52.79-5.69,1.37-13.18l1.01-14.98c.65-9.36.29-9.65-6.26-10.3v-2.02h11.81l16.42,36,16.63-36h12.24v2.02c-6.34.58-6.84.72-6.62,8.14l.72,26.07c.22,7.63.43,7.99,6.7,8.57v2.02h-18.94Z" /><path class="st0" d="M86.03,105.7c-1.08,0-2.59-.65-3.38-1.37-.94-1.01-1.37-2.02-1.73-3.24-2.88,1.94-6.34,4.61-8.5,4.61-5.11,0-8.64-4.25-8.64-8.79,0-3.53,1.87-5.76,5.83-7.13,4.32-1.44,9.58-3.38,11.16-4.68v-1.3c0-5.18-2.45-8.14-6.05-8.14-1.44,0-2.52.58-3.24,1.44-.94.94-1.58,2.52-2.16,4.75-.29,1.15-1.08,1.66-2.09,1.66-1.3,0-3.17-1.44-3.17-3.1,0-1.08.94-1.87,2.3-2.88,2.02-1.44,6.7-4.25,10.8-5.04,2.16,0,4.32.65,5.9,1.94,2.52,2.09,3.24,5.04,3.24,8.78v13.39c0,3.24,1.3,4.32,2.52,4.32.86,0,1.87-.36,2.59-.79l.72,1.87-6.12,3.67ZM80.78,87.56c-1.51.79-4.97,2.3-6.48,3.02-2.81,1.3-4.39,2.66-4.39,5.26,0,3.74,2.88,5.54,5.11,5.54,1.87-.07,4.39-1.3,5.76-2.59v-11.23Z" /><path class="st0" d="M112.67,81.87c-1.37-4.25-3.89-7.13-7.42-7.13-2.74,0-4.68,2.16-4.68,4.97,0,3.24,2.88,4.9,6.12,6.27,5.4,2.23,9.07,4.82,9.07,9.79,0,6.55-6.12,9.94-11.88,9.94-3.67,0-6.98-1.37-8.28-2.45-.5-1.01-1.15-5.9-1.15-8.5l1.87-.36c1.3,4.75,4.54,8.93,8.86,8.93,2.66,0,5.11-2.02,5.11-5.04s-2.09-4.9-5.69-6.55c-4.32-2.02-9-4.39-9-9.94,0-5.04,4.32-9.29,10.94-9.29,2.95,0,4.9.65,6.41,1.22.58,1.66,1.37,5.9,1.58,7.7l-1.87.43Z" /><path class="st0" d="M138.02,81.87c-1.37-4.25-3.89-7.13-7.42-7.13-2.74,0-4.68,2.16-4.68,4.97,0,3.24,2.88,4.9,6.12,6.27,5.4,2.23,9.07,4.82,9.07,9.79,0,6.55-6.12,9.94-11.88,9.94-3.67,0-6.98-1.37-8.28-2.45-.5-1.01-1.15-5.9-1.15-8.5l1.87-.36c1.3,4.75,4.54,8.93,8.86,8.93,2.66,0,5.11-2.02,5.11-5.04s-2.09-4.9-5.69-6.55c-4.32-2.02-9-4.39-9-9.94,0-5.04,4.32-9.29,10.94-9.29,2.95,0,4.9.65,6.41,1.22.58,1.66,1.37,5.9,1.58,7.7l-1.87.43Z" /><path class="st0" d="M167.18,105.7c-1.08,0-2.59-.65-3.38-1.37-.94-1.01-1.37-2.02-1.73-3.24-2.88,1.94-6.34,4.61-8.5,4.61-5.11,0-8.64-4.25-8.64-8.79,0-3.53,1.87-5.76,5.83-7.13,4.32-1.44,9.58-3.38,11.16-4.68v-1.3c0-5.18-2.45-8.14-6.05-8.14-1.44,0-2.52.58-3.24,1.44-.94.94-1.58,2.52-2.16,4.75-.29,1.15-1.08,1.66-2.09,1.66-1.3,0-3.17-1.44-3.17-3.1,0-1.08.94-1.87,2.3-2.88,2.02-1.44,6.7-4.25,10.8-5.04,2.16,0,4.32.65,5.9,1.94,2.52,2.09,3.24,5.04,3.24,8.78v13.39c0,3.24,1.3,4.32,2.52,4.32.86,0,1.87-.36,2.59-.79l.72,1.87-6.12,3.67ZM161.92,87.56c-1.51.79-4.97,2.3-6.48,3.02-2.81,1.3-4.39,2.66-4.39,5.26,0,3.74,2.88,5.54,5.11,5.54,1.87-.07,4.39-1.3,5.76-2.59v-11.23Z" /><path class="st0" d="M200.95,98.36c-3.17,4.18-7.99,7.34-12.24,7.34-9.07,0-14.4-7.34-14.4-15.05,0-5.54,2.38-10.37,7.2-14.11,3.74-2.88,8.06-4.03,10.87-4.03s5.26.94,6.41,1.87c.94.79,1.15,1.44,1.15,2.23,0,1.51-1.58,3.1-2.38,3.1-.36,0-.72-.22-1.37-.79-2.16-2.02-4.68-2.95-7.2-2.95-4.75,0-8.93,3.96-8.93,11.52,0,10.01,6.84,13.32,10.87,13.32,3.1,0,5.47-.86,8.78-3.96l1.22,1.51Z" /><path class="st0" d="M221.47,104.84v-1.87c4.18-.43,4.75-.86,4.75-5.54v-11.95c0-5.9-2.23-8.86-7.06-8.86-2.74,0-5.47,1.37-7.49,3.67v17.14c0,4.61.36,5.11,4.61,5.54v1.87h-15.27v-1.87c4.32-.36,4.97-.79,4.97-5.54v-34.35c0-4.54-.14-4.9-4.9-5.33v-1.66c3.46-.5,7.78-1.66,10.58-2.52v24.19c2.52-2.59,6.41-5.26,10.3-5.26,5.83,0,9.94,3.67,9.94,12.31v12.6c0,4.75.5,5.18,4.75,5.54v1.87h-15.19Z" /><g><path class="st0" d="M272.23,103.11c-3.31.5-6.98,1.51-10.58,2.59l-.43-.43v-5.11c-1.66,1.22-3.31,2.52-5.33,3.74-2.09,1.22-3.6,1.8-5.54,1.8-4.82,0-8.93-2.95-8.93-10.73v-14.11c0-3.96-.29-4.25-4.39-5.04v-1.66c3.38-.22,6.84-.65,10.3-1.3-.22,2.23-.22,5.62-.22,10.51v9.65c0,6.41,3.1,8.14,6.34,8.14,2.59,0,5.33-1.08,7.78-3.46v-16.78c0-4.1-.43-4.39-5.62-5.11v-1.66c3.74-.22,7.49-.5,11.3-1.3v24.05c0,3.6.58,4.1,3.31,4.25l2.02.14v1.8Z" /><path class="st0" d="M293.68,81.87c-1.37-4.25-3.89-7.13-7.42-7.13-2.74,0-4.68,2.16-4.68,4.97,0,3.24,2.88,4.9,6.12,6.27,5.4,2.23,9.07,4.82,9.07,9.79,0,6.55-6.12,9.94-11.88,9.94-3.67,0-6.98-1.37-8.28-2.45-.5-1.01-1.15-5.9-1.15-8.5l1.87-.36c1.3,4.75,4.54,8.93,8.86,8.93,2.66,0,5.11-2.02,5.11-5.04s-2.09-4.9-5.69-6.55c-4.32-2.02-9-4.39-9-9.94,0-5.04,4.32-9.29,10.94-9.29,2.95,0,4.9.65,6.41,1.22.58,1.66,1.37,5.9,1.58,7.7l-1.87.43Z" /></g><path class="st0" d="M326.59,98.72c-4.54,5.69-9.5,6.98-11.74,6.98-8.86,0-14.04-7.2-14.04-15.34,0-4.97,1.8-9.36,4.75-12.6,2.95-3.31,6.84-5.26,10.58-5.26,5.98,0,10.8,5.33,10.8,10.94,0,1.44-.36,2.02-1.66,2.3-1.22.22-10.22.94-18.79,1.22.07,9.79,5.69,13.83,10.73,13.83,2.88,0,5.62-1.15,8.21-3.6l1.15,1.51ZM306.86,84.03c4.03,0,7.99-.07,12.17-.22,1.3,0,1.73-.43,1.73-1.44.07-3.74-2.38-7.2-6.34-7.2-3.31,0-6.48,3.02-7.56,8.86Z" /><path class="st0" d="M343.87,104.76c-1.22.65-2.38.94-3.02.94-4.54,0-7.06-2.88-7.06-8.57v-20.95h-4.97l-.29-.72,1.94-2.09h3.31v-5.26l4.68-4.75,1.01.14v9.86h8.14c.65.72.43,2.3-.43,2.81h-7.71v18.51c0,5.83,2.38,6.91,4.18,6.91s3.46-.72,4.46-1.22l.65,1.87-4.9,2.52Z" /><path class="st0" d="M364.53,104.76c-1.22.65-2.38.94-3.02.94-4.54,0-7.06-2.88-7.06-8.57v-20.95h-4.97l-.29-.72,1.94-2.09h3.31v-5.26l4.68-4.75,1.01.14v9.86h8.14c.65.72.43,2.3-.43,2.81h-7.71v18.51c0,5.83,2.38,6.91,4.18,6.91s3.46-.72,4.46-1.22l.65,1.87-4.9,2.52Z" /><path class="st0" d="M390.02,81.87c-1.37-4.25-3.89-7.13-7.42-7.13-2.74,0-4.68,2.16-4.68,4.97,0,3.24,2.88,4.9,6.12,6.27,5.4,2.23,9.07,4.82,9.07,9.79,0,6.55-6.12,9.94-11.88,9.94-3.67,0-6.98-1.37-8.28-2.45-.5-1.01-1.15-5.9-1.15-8.5l1.87-.36c1.3,4.75,4.54,8.93,8.86,8.93,2.66,0,5.11-2.02,5.11-5.04s-2.09-4.9-5.69-6.55c-4.32-2.02-9-4.39-9-9.94,0-5.04,4.32-9.29,10.94-9.29,2.95,0,4.9.65,6.41,1.22.58,1.66,1.37,5.9,1.58,7.7l-1.87.43Z" /><g><path class="st0" d="M297.53,32.38c0-6.24,3.31-10.99,7.3-13.1,1.73-.91,3.7-1.54,5.18-1.54,3.98,0,6.38,2.74,6.38,7.49,0,4.13-1.78,8.83-5.14,11.62-2.06,1.73-4.7,3.02-7.39,3.02-4.56,0-6.34-3.6-6.34-7.49ZM307.13,37.66c2.59-1.1,5.23-6.19,5.23-12.34,0-3.89-1.68-5.76-3.89-5.76-.72,0-1.3.19-1.82.43-1.87.82-5.09,4.75-5.09,12.15,0,3.55,1.49,5.81,4.03,5.81.58,0,1.06-.1,1.54-.29Z" /><path class="st0" d="M322.4,18.51c.72-3.65,1.87-7.15,4.03-9.55,2.21-2.45,4.95-3.84,6.87-3.84,1.68,0,2.93,1.2,2.88,2.06,0,.72-.67,1.58-1.2,1.97-.38.29-.86.34-1.2-.05-1.01-1.06-2.02-1.68-3.02-1.68-1.78,0-3.22,2.21-4.66,11.09h5.42l-1.01,1.49-4.8.48c-.86,5.28-1.39,8.21-2.45,13.54-1.68,8.26-3.46,11.86-6.1,14.59-2.11,2.26-4.13,3.02-5.42,3.02-1.39,0-3.02-.96-2.98-2.06,0-.62.58-1.44,1.3-2.02.38-.34.62-.29.91,0,.77.72,2.16,1.2,3.02,1.2.82,0,1.58-.38,2.06-.96.62-.72,1.78-2.74,3.36-12.05,1.15-6.62,1.78-10.66,2.59-15.36h-3.98l-.14-.53,1.44-1.34h3.07Z" /></g><path class="st0" d="M23.66,155.85v-1.62c3.65-.46,4.18-.93,3.42-3.19-.75-2.26-1.91-5.39-3.19-8.93h-12.35c-.93,2.61-1.8,5.05-2.55,7.48-1.28,3.65-.75,4.23,3.6,4.64v1.62H0v-1.62c3.65-.52,4.47-.87,6.5-5.97l12.01-30.45,1.8-.52c3.6,9.98,7.48,21,11.19,31.09,1.86,4.99,2.61,5.51,6.38,5.86v1.62h-14.21ZM17.98,124.82h-.12c-1.86,4.99-3.71,10.03-5.45,14.79h10.67l-5.1-14.79Z" /><path class="st0" d="M71.57,155.85v-1.51c3.42-.35,4.06-.58,4.06-4.7v-9.69c0-4.12-1.45-6.73-5.1-6.73-2.09,0-4.29,1.16-6.5,3.02.12.7.17,1.33.17,2.44v11.31c0,3.65.52,4,3.71,4.35v1.51h-12.41v-1.51c3.6-.35,4.12-.64,4.12-4.47v-9.98c0-4.29-1.51-6.67-5.05-6.67-2.32,0-4.58,1.57-6.32,3.02v13.63c0,3.77.46,4.12,3.31,4.47v1.51h-12.24v-1.51c3.83-.35,4.35-.7,4.35-4.47v-12.01c0-3.71-.17-4-3.54-4.52v-1.33c2.55-.46,5.51-1.22,8.06-2.38v4.7c1.22-.81,2.49-1.86,4.23-2.96,1.51-.93,2.9-1.57,4.76-1.57,2.78,0,5.28,1.74,6.44,4.76,1.68-1.28,3.36-2.38,4.81-3.25,1.22-.81,2.73-1.51,4.35-1.51,4.52,0,7.37,3.19,7.37,8.87v11.19c0,3.89.46,4.12,3.77,4.47v1.51h-12.35Z" /><path class="st0" d="M102.2,155.85v-1.51c3.36-.35,3.83-.7,3.83-4.47v-9.63c0-4.76-1.8-7.13-5.68-7.13-2.2,0-4.41,1.1-6.03,2.96v13.8c0,3.71.29,4.12,3.71,4.47v1.51h-12.3v-1.51c3.48-.29,4-.64,4-4.47v-27.67c0-3.65-.12-3.94-3.94-4.29v-1.33c2.78-.41,6.26-1.33,8.53-2.03v19.49c2.03-2.09,5.16-4.23,8.29-4.23,4.7,0,8,2.96,8,9.92v10.15c0,3.83.41,4.18,3.83,4.47v1.51h-12.24Z" /><path class="st0" d="M137.11,150.92c-3.65,4.58-7.66,5.63-9.45,5.63-7.13,0-11.31-5.8-11.31-12.35,0-4,1.45-7.54,3.83-10.15,2.38-2.67,5.51-4.23,8.53-4.23,4.81,0,8.7,4.29,8.7,8.82,0,1.16-.29,1.62-1.33,1.86-.99.17-8.24.75-15.14.99.06,7.89,4.58,11.14,8.64,11.14,2.32,0,4.52-.93,6.61-2.9l.93,1.22ZM121.22,139.09c3.25,0,6.44-.06,9.8-.17,1.04,0,1.39-.35,1.39-1.16.06-3.02-1.91-5.8-5.1-5.8-2.67,0-5.22,2.44-6.09,7.13Z" /><path class="st0" d="M148.89,135.96c1.74-2.9,4.23-6.15,7.02-6.15,1.97,0,3.36,1.51,3.36,2.9,0,1.16-.75,2.32-1.86,2.84-.7.29-1.22.23-1.57-.12-.81-.87-1.51-1.22-2.44-1.22-1.51,0-3.36,1.74-4.64,4.99v10.61c0,3.83.29,4.18,4.76,4.52v1.51h-13.34v-1.51c3.6-.35,4-.7,4-4.52v-12c0-3.83-.29-4.06-3.6-4.52v-1.28c2.84-.46,5.39-1.16,8.18-2.38v6.32h.12Z" /><path class="st0" d="M175.28,137.35c-1.1-3.42-3.13-5.74-5.97-5.74-2.2,0-3.77,1.74-3.77,4,0,2.61,2.32,3.94,4.93,5.05,4.35,1.8,7.31,3.89,7.31,7.89,0,5.28-4.93,8-9.57,8-2.96,0-5.63-1.1-6.67-1.97-.41-.81-.93-4.76-.93-6.84l1.51-.29c1.04,3.83,3.65,7.19,7.13,7.19,2.15,0,4.12-1.62,4.12-4.06s-1.68-3.94-4.58-5.28c-3.48-1.62-7.25-3.54-7.25-8,0-4.06,3.48-7.48,8.82-7.48,2.38,0,3.94.52,5.16.99.46,1.33,1.1,4.76,1.28,6.21l-1.51.35Z" /><path class="st0" d="M191.4,155.79c-.99.52-1.91.75-2.44.75-3.65,0-5.68-2.32-5.68-6.9v-16.88h-4l-.23-.58,1.57-1.68h2.67v-4.23l3.77-3.83.81.12v7.95h6.55c.52.58.35,1.86-.35,2.26h-6.21v14.91c0,4.7,1.91,5.57,3.36,5.57s2.78-.58,3.6-.99l.52,1.51-3.94,2.03Z" /></g><g id="black"><path class="st0" d="M50.4,2.02c-4.32.29-5.98,1.3-6.34,4.25-.22,1.94-.36,5.04-.36,11.67v5.98c0,8.5-1.3,14.62-5.47,19.01-3.31,3.46-8.14,4.97-12.89,4.97-4.18,0-8.35-1.01-11.52-3.46-4.32-3.31-6.34-8.71-6.34-17.14V9.29c0-6.48-.58-6.77-6.26-7.27V0h18.65v2.02c-5.69.36-6.26.79-6.26,7.27v16.42c0,11.59,4.61,18.22,13.54,18.22,10.37,0,13.61-8.64,13.61-20.52v-5.47c0-6.62-.22-9.65-.5-11.88-.43-2.81-1.94-3.67-6.98-4.03V0h17.14v2.02Z" /><path class="st0" d="M69.47,46.8v-1.87c4.25-.43,4.75-1.01,4.75-5.98v-12.02c0-4.97-1.73-8.21-6.55-8.21-2.88,0-5.69,1.8-7.85,3.67v16.92c0,4.9.43,5.18,4.68,5.62v1.87h-15.62v-1.87c4.9-.5,5.26-.86,5.26-5.62v-14.91c0-4.61-.43-4.82-4.32-5.54v-1.66c3.46-.65,6.84-1.51,10.01-2.95v5.76c1.44-1.08,3.02-2.16,4.82-3.38,2.02-1.3,3.89-2.16,5.98-2.16,5.69,0,9.29,3.96,9.29,10.94v13.9c0,4.9.36,5.18,4.54,5.62v1.87h-14.98Z" /><path class="st0" d="M87.76,46.8v-1.87c4.54-.43,5.04-.86,5.04-5.76v-14.83c0-4.46-.22-4.75-4.54-5.47v-1.73c3.67-.58,7.06-1.51,10.23-2.81v24.84c0,4.9.5,5.33,5.11,5.76v1.87h-15.84ZM91.58,4.54c0-2.16,1.73-3.74,3.67-3.74s3.6,1.58,3.6,3.74c0,1.94-1.58,3.67-3.67,3.67-1.87,0-3.6-1.73-3.6-3.67Z" /><path class="st0" d="M137.08,17.14c-3.74.5-4.39,1.15-6.34,5.47-2.38,5.4-6.19,14.26-10.15,24.99h-1.94c-3.24-8.64-6.55-16.85-9.94-25.2-1.66-4.18-2.23-4.68-6.12-5.26v-1.8h14.76v1.8c-3.89.5-4.03,1.08-2.88,4.18,1.87,5.04,4.75,12.6,6.84,17.79,2.52-5.98,4.82-12.53,6.41-17.21,1.08-3.46.65-4.25-3.46-4.75v-1.8h12.82v1.8Z" /><path class="st0" d="M161.06,40.68c-4.54,5.69-9.5,6.98-11.74,6.98-8.86,0-14.04-7.2-14.04-15.34,0-4.97,1.8-9.36,4.75-12.6,2.95-3.31,6.84-5.26,10.58-5.26,5.98,0,10.8,5.33,10.8,10.94,0,1.44-.36,2.02-1.66,2.3-1.22.22-10.23.94-18.79,1.22.07,9.79,5.69,13.83,10.73,13.83,2.88,0,5.62-1.15,8.21-3.6l1.15,1.51ZM141.33,25.99c4.03,0,7.99-.07,12.17-.22,1.3,0,1.73-.43,1.73-1.44.07-3.74-2.38-7.2-6.34-7.2-3.31,0-6.48,3.02-7.56,8.86Z" /><path class="st0" d="M175.67,22.11c2.16-3.6,5.26-7.63,8.71-7.63,2.45,0,4.18,1.87,4.18,3.6,0,1.44-.94,2.88-2.3,3.53-.86.36-1.51.29-1.94-.14-1.01-1.08-1.87-1.51-3.02-1.51-1.87,0-4.18,2.16-5.76,6.19v13.18c0,4.75.36,5.18,5.9,5.62v1.87h-16.56v-1.87c4.46-.43,4.97-.86,4.97-5.62v-14.91c0-4.75-.36-5.04-4.46-5.62v-1.58c3.53-.58,6.7-1.44,10.15-2.95v7.85h.14Z" /><path class="st0" d="M208.79,23.83c-1.37-4.25-3.89-7.13-7.42-7.13-2.74,0-4.68,2.16-4.68,4.97,0,3.24,2.88,4.9,6.12,6.26,5.4,2.23,9.07,4.82,9.07,9.79,0,6.55-6.12,9.94-11.88,9.94-3.67,0-6.98-1.37-8.28-2.45-.5-1.01-1.15-5.9-1.15-8.5l1.87-.36c1.3,4.75,4.54,8.93,8.86,8.93,2.66,0,5.11-2.02,5.11-5.04s-2.09-4.9-5.69-6.55c-4.32-2.02-9-4.39-9-9.94,0-5.04,4.32-9.29,10.94-9.29,2.95,0,4.9.65,6.41,1.22.58,1.66,1.37,5.9,1.58,7.7l-1.87.43Z" /><path class="st0" d="M215.99,46.8v-1.87c4.54-.43,5.04-.86,5.04-5.76v-14.83c0-4.46-.22-4.75-4.54-5.47v-1.73c3.67-.58,7.06-1.51,10.22-2.81v24.84c0,4.9.5,5.33,5.11,5.76v1.87h-15.84ZM219.81,4.54c0-2.16,1.73-3.74,3.67-3.74s3.6,1.58,3.6,3.74c0,1.94-1.58,3.67-3.67,3.67-1.87,0-3.6-1.73-3.6-3.67Z" /><path class="st0" d="M248.83,46.73c-1.22.65-2.38.94-3.02.94-4.54,0-7.06-2.88-7.06-8.57v-20.95h-4.97l-.29-.72,1.94-2.09h3.31v-5.26l4.68-4.75,1.01.14v9.86h8.14c.65.72.43,2.3-.43,2.81h-7.71v18.51c0,5.83,2.38,6.91,4.18,6.91s3.46-.72,4.46-1.22l.65,1.87-4.9,2.52Z" /><path class="st0" d="M288.35,17.14c-3.82.58-4.46,1.15-6.41,5.26-1.8,3.82-4.03,9.79-9,21.67-4.82,11.52-6.41,15.63-7.42,19.51-.36,1.37-1.3,1.73-2.3,1.73-2.02,0-4.1-1.73-4.1-3.46,0-1.15.65-1.8,1.87-2.59,2.23-1.44,3.67-3.24,5.33-6.41,1.37-2.52,1.94-4.03,2.23-4.97.36-1.08.36-2.02-.07-3.24-2.88-8.21-6.12-16.92-8.28-22.03-1.51-3.96-2.23-4.9-6.19-5.47v-1.8h14.62v1.8c-3.31.58-3.67,1.3-2.74,3.96l6.55,18.07c2.02-4.9,5.11-13.39,6.62-17.93.86-2.74.36-3.53-3.74-4.1v-1.8h13.03v1.8Z" /><path class="st0" d="M41.9,104.84v-2.02c5.83-.58,6.12-.94,6.05-8.57l-.22-29.38h-.29l-17.57,39.46h-1.44l-16.13-38.45h-.14l-1.08,20.52c-.29,5.9-.29,9.07-.22,11.95.14,3.46,1.87,3.96,6.62,4.46v2.02H.71v-2.02c4.18-.5,5.62-1.3,6.12-4.32.36-2.52.79-5.69,1.37-13.18l1.01-14.98c.65-9.36.29-9.65-6.26-10.3v-2.02h11.81l16.42,36,16.63-36h12.24v2.02c-6.34.58-6.84.72-6.62,8.14l.72,26.07c.22,7.63.43,7.99,6.7,8.57v2.02h-18.94Z" /><path class="st0" d="M86.03,105.7c-1.08,0-2.59-.65-3.38-1.37-.94-1.01-1.37-2.02-1.73-3.24-2.88,1.94-6.34,4.61-8.5,4.61-5.11,0-8.64-4.25-8.64-8.79,0-3.53,1.87-5.76,5.83-7.13,4.32-1.44,9.58-3.38,11.16-4.68v-1.3c0-5.18-2.45-8.14-6.05-8.14-1.44,0-2.52.58-3.24,1.44-.94.94-1.58,2.52-2.16,4.75-.29,1.15-1.08,1.66-2.09,1.66-1.3,0-3.17-1.44-3.17-3.1,0-1.08.94-1.87,2.3-2.88,2.02-1.44,6.7-4.25,10.8-5.04,2.16,0,4.32.65,5.9,1.94,2.52,2.09,3.24,5.04,3.24,8.78v13.39c0,3.24,1.3,4.32,2.52,4.32.86,0,1.87-.36,2.59-.79l.72,1.87-6.12,3.67ZM80.78,87.56c-1.51.79-4.97,2.3-6.48,3.02-2.81,1.3-4.39,2.66-4.39,5.26,0,3.74,2.88,5.54,5.11,5.54,1.87-.07,4.39-1.3,5.76-2.59v-11.23Z" /><path class="st0" d="M112.67,81.87c-1.37-4.25-3.89-7.13-7.42-7.13-2.74,0-4.68,2.16-4.68,4.97,0,3.24,2.88,4.9,6.12,6.27,5.4,2.23,9.07,4.82,9.07,9.79,0,6.55-6.12,9.94-11.88,9.94-3.67,0-6.98-1.37-8.28-2.45-.5-1.01-1.15-5.9-1.15-8.5l1.87-.36c1.3,4.75,4.54,8.93,8.86,8.93,2.66,0,5.11-2.02,5.11-5.04s-2.09-4.9-5.69-6.55c-4.32-2.02-9-4.39-9-9.94,0-5.04,4.32-9.29,10.94-9.29,2.95,0,4.9.65,6.41,1.22.58,1.66,1.37,5.9,1.58,7.7l-1.87.43Z" /><path class="st0" d="M138.02,81.87c-1.37-4.25-3.89-7.13-7.42-7.13-2.74,0-4.68,2.16-4.68,4.97,0,3.24,2.88,4.9,6.12,6.27,5.4,2.23,9.07,4.82,9.07,9.79,0,6.55-6.12,9.94-11.88,9.94-3.67,0-6.98-1.37-8.28-2.45-.5-1.01-1.15-5.9-1.15-8.5l1.87-.36c1.3,4.75,4.54,8.93,8.86,8.93,2.66,0,5.11-2.02,5.11-5.04s-2.09-4.9-5.69-6.55c-4.32-2.02-9-4.39-9-9.94,0-5.04,4.32-9.29,10.94-9.29,2.95,0,4.9.65,6.41,1.22.58,1.66,1.37,5.9,1.58,7.7l-1.87.43Z" /><path class="st0" d="M167.18,105.7c-1.08,0-2.59-.65-3.38-1.37-.94-1.01-1.37-2.02-1.73-3.24-2.88,1.94-6.34,4.61-8.5,4.61-5.11,0-8.64-4.25-8.64-8.79,0-3.53,1.87-5.76,5.83-7.13,4.32-1.44,9.58-3.38,11.16-4.68v-1.3c0-5.18-2.45-8.14-6.05-8.14-1.44,0-2.52.58-3.24,1.44-.94.94-1.58,2.52-2.16,4.75-.29,1.15-1.08,1.66-2.09,1.66-1.3,0-3.17-1.44-3.17-3.1,0-1.08.94-1.87,2.3-2.88,2.02-1.44,6.7-4.25,10.8-5.04,2.16,0,4.32.65,5.9,1.94,2.52,2.09,3.24,5.04,3.24,8.78v13.39c0,3.24,1.3,4.32,2.52,4.32.86,0,1.87-.36,2.59-.79l.72,1.87-6.12,3.67ZM161.92,87.56c-1.51.79-4.97,2.3-6.48,3.02-2.81,1.3-4.39,2.66-4.39,5.26,0,3.74,2.88,5.54,5.11,5.54,1.87-.07,4.39-1.3,5.76-2.59v-11.23Z" /><path class="st0" d="M200.95,98.36c-3.17,4.18-7.99,7.34-12.24,7.34-9.07,0-14.4-7.34-14.4-15.05,0-5.54,2.38-10.37,7.2-14.11,3.74-2.88,8.06-4.03,10.87-4.03s5.26.94,6.41,1.87c.94.79,1.15,1.44,1.15,2.23,0,1.51-1.58,3.1-2.38,3.1-.36,0-.72-.22-1.37-.79-2.16-2.02-4.68-2.95-7.2-2.95-4.75,0-8.93,3.96-8.93,11.52,0,10.01,6.84,13.32,10.87,13.32,3.1,0,5.47-.86,8.78-3.96l1.22,1.51Z" /><path class="st0" d="M221.47,104.84v-1.87c4.18-.43,4.75-.86,4.75-5.54v-11.95c0-5.9-2.23-8.86-7.06-8.86-2.74,0-5.47,1.37-7.49,3.67v17.14c0,4.61.36,5.11,4.61,5.54v1.87h-15.27v-1.87c4.32-.36,4.97-.79,4.97-5.54v-34.35c0-4.54-.14-4.9-4.9-5.33v-1.66c3.46-.5,7.78-1.66,10.58-2.52v24.19c2.52-2.59,6.41-5.26,10.3-5.26,5.83,0,9.94,3.67,9.94,12.31v12.6c0,4.75.5,5.18,4.75,5.54v1.87h-15.19Z" /><g><path class="st0" d="M272.23,103.11c-3.31.5-6.98,1.51-10.58,2.59l-.43-.43v-5.11c-1.66,1.22-3.31,2.52-5.33,3.74-2.09,1.22-3.6,1.8-5.54,1.8-4.82,0-8.93-2.95-8.93-10.73v-14.11c0-3.96-.29-4.25-4.39-5.04v-1.66c3.38-.22,6.84-.65,10.3-1.3-.22,2.23-.22,5.62-.22,10.51v9.65c0,6.41,3.1,8.14,6.34,8.14,2.59,0,5.33-1.08,7.78-3.46v-16.78c0-4.1-.43-4.39-5.62-5.11v-1.66c3.74-.22,7.49-.5,11.3-1.3v24.05c0,3.6.58,4.1,3.31,4.25l2.02.14v1.8Z" /><path class="st0" d="M293.68,81.87c-1.37-4.25-3.89-7.13-7.42-7.13-2.74,0-4.68,2.16-4.68,4.97,0,3.24,2.88,4.9,6.12,6.27,5.4,2.23,9.07,4.82,9.07,9.79,0,6.55-6.12,9.94-11.88,9.94-3.67,0-6.98-1.37-8.28-2.45-.5-1.01-1.15-5.9-1.15-8.5l1.87-.36c1.3,4.75,4.54,8.93,8.86,8.93,2.66,0,5.11-2.02,5.11-5.04s-2.09-4.9-5.69-6.55c-4.32-2.02-9-4.39-9-9.94,0-5.04,4.32-9.29,10.94-9.29,2.95,0,4.9.65,6.41,1.22.58,1.66,1.37,5.9,1.58,7.7l-1.87.43Z" /></g><path class="st0" d="M326.59,98.72c-4.54,5.69-9.5,6.98-11.74,6.98-8.86,0-14.04-7.2-14.04-15.34,0-4.97,1.8-9.36,4.75-12.6,2.95-3.31,6.84-5.26,10.58-5.26,5.98,0,10.8,5.33,10.8,10.94,0,1.44-.36,2.02-1.66,2.3-1.22.22-10.22.94-18.79,1.22.07,9.79,5.69,13.83,10.73,13.83,2.88,0,5.62-1.15,8.21-3.6l1.15,1.51ZM306.86,84.03c4.03,0,7.99-.07,12.17-.22,1.3,0,1.73-.43,1.73-1.44.07-3.74-2.38-7.2-6.34-7.2-3.31,0-6.48,3.02-7.56,8.86Z" /><path class="st0" d="M343.87,104.76c-1.22.65-2.38.94-3.02.94-4.54,0-7.06-2.88-7.06-8.57v-20.95h-4.97l-.29-.72,1.94-2.09h3.31v-5.26l4.68-4.75,1.01.14v9.86h8.14c.65.72.43,2.3-.43,2.81h-7.71v18.51c0,5.83,2.38,6.91,4.18,6.91s3.46-.72,4.46-1.22l.65,1.87-4.9,2.52Z" /><path class="st0" d="M364.53,104.76c-1.22.65-2.38.94-3.02.94-4.54,0-7.06-2.88-7.06-8.57v-20.95h-4.97l-.29-.72,1.94-2.09h3.31v-5.26l4.68-4.75,1.01.14v9.86h8.14c.65.72.43,2.3-.43,2.81h-7.71v18.51c0,5.83,2.38,6.91,4.18,6.91s3.46-.72,4.46-1.22l.65,1.87-4.9,2.52Z" /><path class="st0" d="M390.02,81.87c-1.37-4.25-3.89-7.13-7.42-7.13-2.74,0-4.68,2.16-4.68,4.97,0,3.24,2.88,4.9,6.12,6.27,5.4,2.23,9.07,4.82,9.07,9.79,0,6.55-6.12,9.94-11.88,9.94-3.67,0-6.98-1.37-8.28-2.45-.5-1.01-1.15-5.9-1.15-8.5l1.87-.36c1.3,4.75,4.54,8.93,8.86,8.93,2.66,0,5.11-2.02,5.11-5.04s-2.09-4.9-5.69-6.55c-4.32-2.02-9-4.39-9-9.94,0-5.04,4.32-9.29,10.94-9.29,2.95,0,4.9.65,6.41,1.22.58,1.66,1.37,5.9,1.58,7.7l-1.87.43Z" /><g><path class="st0" d="M297.53,32.38c0-6.24,3.31-10.99,7.3-13.1,1.73-.91,3.7-1.54,5.18-1.54,3.98,0,6.38,2.74,6.38,7.49,0,4.13-1.78,8.83-5.14,11.62-2.06,1.73-4.7,3.02-7.39,3.02-4.56,0-6.34-3.6-6.34-7.49ZM307.13,37.66c2.59-1.1,5.23-6.19,5.23-12.34,0-3.89-1.68-5.76-3.89-5.76-.72,0-1.3.19-1.82.43-1.87.82-5.09,4.75-5.09,12.15,0,3.55,1.49,5.81,4.03,5.81.58,0,1.06-.1,1.54-.29Z" /><path class="st0" d="M322.4,18.51c.72-3.65,1.87-7.15,4.03-9.55,2.21-2.45,4.95-3.84,6.87-3.84,1.68,0,2.93,1.2,2.88,2.06,0,.72-.67,1.58-1.2,1.97-.38.29-.86.34-1.2-.05-1.01-1.06-2.02-1.68-3.02-1.68-1.78,0-3.22,2.21-4.66,11.09h5.42l-1.01,1.49-4.8.48c-.86,5.28-1.39,8.21-2.45,13.54-1.68,8.26-3.46,11.86-6.1,14.59-2.11,2.26-4.13,3.02-5.42,3.02-1.39,0-3.02-.96-2.98-2.06,0-.62.58-1.44,1.3-2.02.38-.34.62-.29.91,0,.77.72,2.16,1.2,3.02,1.2.82,0,1.58-.38,2.06-.96.62-.72,1.78-2.74,3.36-12.05,1.15-6.62,1.78-10.66,2.59-15.36h-3.98l-.14-.53,1.44-1.34h3.07Z" /></g><path class="st0" d="M23.66,155.85v-1.62c3.65-.46,4.18-.93,3.42-3.19-.75-2.26-1.91-5.39-3.19-8.93h-12.35c-.93,2.61-1.8,5.05-2.55,7.48-1.28,3.65-.75,4.23,3.6,4.64v1.62H0v-1.62c3.65-.52,4.47-.87,6.5-5.97l12.01-30.45,1.8-.52c3.6,9.98,7.48,21,11.19,31.09,1.86,4.99,2.61,5.51,6.38,5.86v1.62h-14.21ZM17.98,124.82h-.12c-1.86,4.99-3.71,10.03-5.45,14.79h10.67l-5.1-14.79Z" /><path class="st0" d="M71.57,155.85v-1.51c3.42-.35,4.06-.58,4.06-4.7v-9.69c0-4.12-1.45-6.73-5.1-6.73-2.09,0-4.29,1.16-6.5,3.02.12.7.17,1.33.17,2.44v11.31c0,3.65.52,4,3.71,4.35v1.51h-12.41v-1.51c3.6-.35,4.12-.64,4.12-4.47v-9.98c0-4.29-1.51-6.67-5.05-6.67-2.32,0-4.58,1.57-6.32,3.02v13.63c0,3.77.46,4.12,3.31,4.47v1.51h-12.24v-1.51c3.83-.35,4.35-.7,4.35-4.47v-12.01c0-3.71-.17-4-3.54-4.52v-1.33c2.55-.46,5.51-1.22,8.06-2.38v4.7c1.22-.81,2.49-1.86,4.23-2.96,1.51-.93,2.9-1.57,4.76-1.57,2.78,0,5.28,1.74,6.44,4.76,1.68-1.28,3.36-2.38,4.81-3.25,1.22-.81,2.73-1.51,4.35-1.51,4.52,0,7.37,3.19,7.37,8.87v11.19c0,3.89.46,4.12,3.77,4.47v1.51h-12.35Z" /><path class="st0" d="M102.2,155.85v-1.51c3.36-.35,3.83-.7,3.83-4.47v-9.63c0-4.76-1.8-7.13-5.68-7.13-2.2,0-4.41,1.1-6.03,2.96v13.8c0,3.71.29,4.12,3.71,4.47v1.51h-12.3v-1.51c3.48-.29,4-.64,4-4.47v-27.67c0-3.65-.12-3.94-3.94-4.29v-1.33c2.78-.41,6.26-1.33,8.53-2.03v19.49c2.03-2.09,5.16-4.23,8.29-4.23,4.7,0,8,2.96,8,9.92v10.15c0,3.83.41,4.18,3.83,4.47v1.51h-12.24Z" /><path class="st0" d="M137.11,150.92c-3.65,4.58-7.66,5.63-9.45,5.63-7.13,0-11.31-5.8-11.31-12.35,0-4,1.45-7.54,3.83-10.15,2.38-2.67,5.51-4.23,8.53-4.23,4.81,0,8.7,4.29,8.7,8.82,0,1.16-.29,1.62-1.33,1.86-.99.17-8.24.75-15.14.99.06,7.89,4.58,11.14,8.64,11.14,2.32,0,4.52-.93,6.61-2.9l.93,1.22ZM121.22,139.09c3.25,0,6.44-.06,9.8-.17,1.04,0,1.39-.35,1.39-1.16.06-3.02-1.91-5.8-5.1-5.8-2.67,0-5.22,2.44-6.09,7.13Z" /><path class="st0" d="M148.89,135.96c1.74-2.9,4.23-6.15,7.02-6.15,1.97,0,3.36,1.51,3.36,2.9,0,1.16-.75,2.32-1.86,2.84-.7.29-1.22.23-1.57-.12-.81-.87-1.51-1.22-2.44-1.22-1.51,0-3.36,1.74-4.64,4.99v10.61c0,3.83.29,4.18,4.76,4.52v1.51h-13.34v-1.51c3.6-.35,4-.7,4-4.52v-12c0-3.83-.29-4.06-3.6-4.52v-1.28c2.84-.46,5.39-1.16,8.18-2.38v6.32h.12Z" /><path class="st0" d="M175.28,137.35c-1.1-3.42-3.13-5.74-5.97-5.74-2.2,0-3.77,1.74-3.77,4,0,2.61,2.32,3.94,4.93,5.05,4.35,1.8,7.31,3.89,7.31,7.89,0,5.28-4.93,8-9.57,8-2.96,0-5.63-1.1-6.67-1.97-.41-.81-.93-4.76-.93-6.84l1.51-.29c1.04,3.83,3.65,7.19,7.13,7.19,2.15,0,4.12-1.62,4.12-4.06s-1.68-3.94-4.58-5.28c-3.48-1.62-7.25-3.54-7.25-8,0-4.06,3.48-7.48,8.82-7.48,2.38,0,3.94.52,5.16.99.46,1.33,1.1,4.76,1.28,6.21l-1.51.35Z" /><path class="st0" d="M191.4,155.79c-.99.52-1.91.75-2.44.75-3.65,0-5.68-2.32-5.68-6.9v-16.88h-4l-.23-.58,1.57-1.68h2.67v-4.23l3.77-3.83.81.12v7.95h6.55c.52.58.35,1.86-.35,2.26h-6.21v14.91c0,4.7,1.91,5.57,3.36,5.57s2.78-.58,3.6-.99l.52,1.51-3.94,2.03Z" /></g></svg>